/* XPM */
static char *_eeae229976b4378925989296a17dc1fbXG0iS2lxqk6K166[] = {
/* columns rows colors chars-per-pixel */
"64 64 7 1 ",
"  c gray14",
". c #393B2A",
"X c #BDC747",
"o c #BFC948",
"O c #CCD750",
"+ c #DEEA54",
"@ c #E7F357",
/* pixels */
"                                                                ",
"                                                                ",
"                                                                ",
"                                                                ",
"                                                                ",
"                                                                ",
"                                                                ",
"                                                                ",
"                                                                ",
"                                                                ",
"                                                                ",
"                                                                ",
"                                                                ",
"                                                                ",
"                                                                ",
"                                                                ",
"                                                                ",
"                                                                ",
"                                                                ",
"                                                                ",
"                               ..                               ",
"                              .OO.                              ",
"                             .O@@O.                             ",
"                            .O@++@O.                            ",
"                           .O@+oo+@O.                           ",
"                          .O@+oXXo+@O.                          ",
"                         .O@+oXXXXo+@O.                         ",
"                        .O@+oXXXXXXo+@O.                        ",
"                       .O@+oXXXXXXXXo+@O.                       ",
"                      .O@+oXXXXXXXXXXo+@O.                      ",
"                     .O@+oXXXXXXXXXXXXo+@O.                     ",
"                    .O@+oXXXXXXXXXXXXXXo+@O.                    ",
"                    .O@+oXXXXXXXXXXXXXXo+@O.                    ",
"                     .O@+oXXXXXXXXXXXXo+@O.                     ",
"                      .O@+oXXXXXXXXXXo+@O.                      ",
"                       .O@+oXXXXXXXXo+@O.                       ",
"                        .O@+oXXXXXXo+@O.                        ",
"                         .O@+oXXXXo+@O.                         ",
"                          .O@+oXXo+@O.                          ",
"                           .O@+oo+@O.                           ",
"                            .O@++@O.                            ",
"                             .O@@O.                             ",
"                              .OO.                              ",
"                               ..                               ",
"                                                                ",
"                                                                ",
"                                                                ",
"                                                                ",
"                                                                ",
"                                                                ",
"                                                                ",
"                                                                ",
"                                                                ",
"                                                                ",
"                                                                ",
"                                                                ",
"                                                                ",
"                                                                ",
"                                                                ",
"                                                                ",
"                                                                ",
"                                                                ",
"                                                                ",
"                                                                "
};
