/* XPM */
static char *_79c4e7406c64c57a46a6d2a6b17878fSRK2iXlWb7pi8ZtH[] = {
/* columns rows colors chars-per-pixel */
"64 64 171 2 ",
"   c #242424",
".  c #2B2324",
"X  c #232B25",
"o  c #2B232A",
"O  c #232A2A",
"+  c #282B2D",
"@  c #342224",
"#  c #3A2023",
"$  c #33232D",
"%  c #362B2E",
"&  c #223426",
"*  c #203A27",
"=  c #213929",
"-  c #22332B",
";  c #222E30",
":  c #342332",
">  c #3A2335",
",  c #3C2239",
"<  c #213233",
"1  c #203B3D",
"2  c #283736",
"3  c #491E24",
"4  c #541C21",
"5  c #521E2B",
"6  c #5B1D35",
"7  c #4D1F38",
"8  c #711E34",
"9  c #442228",
"0  c #42223D",
"q  c #452134",
"w  c #4E2E38",
"e  c #71383D",
"r  c #1F4329",
"t  c #1E4B2A",
"y  c #1F4127",
"u  c #1C532B",
"i  c #1E4937",
"p  c #1C5733",
"a  c #224B2C",
"s  c #215434",
"d  c #1A6431",
"f  c #1A7532",
"g  c #1F3F43",
"h  c #243C40",
"j  c #551F41",
"k  c #641F52",
"l  c #4B2345",
"z  c #452241",
"x  c #54224D",
"c  c #592149",
"v  c #5B3B44",
"b  c #6A3D43",
"n  c #7B3942",
"m  c #773541",
"M  c #682051",
"N  c #731F66",
"B  c #6C3B65",
"V  c #763D6F",
"C  c #733965",
"Z  c #7C3F74",
"A  c #1E4344",
"S  c #1D4C46",
"D  c #1D5747",
"F  c #1D4C50",
"G  c #204145",
"H  c #205256",
"J  c #3E555E",
"K  c #2F4849",
"L  c #1E694D",
"P  c #366D44",
"I  c #397D4B",
"U  c #357749",
"Y  c #337E57",
"T  c #1B6766",
"R  c #366A6C",
"E  c #3F6368",
"W  c #3C6F74",
"Q  c #397276",
"!  c #33797F",
"~  c #377576",
"^  c #327D6C",
"/  c #6A4E57",
"(  c #73555E",
")  c #506066",
"_  c #566B73",
"`  c #8C363F",
"'  c #84383F",
"]  c #92303D",
"[  c #AF313E",
"{  c #FF051E",
"}  c #FF1E34",
"|  c #FF2339",
" . c #873450",
".. c #91384C",
"X. c #AB3441",
"o. c #853767",
"O. c #873E7D",
"+. c #933A6D",
"@. c #CE4957",
"#. c #FF4154",
"$. c #37854C",
"%. c #368B4C",
"&. c #2E9D4B",
"*. c #34974E",
"=. c #368A50",
"-. c #31AA51",
";. c #2FB853",
":. c #338A64",
">. c #338B78",
",. c #349168",
"<. c #4EB468",
"1. c #00FF44",
"2. c #05FF48",
"3. c #1EFF5A",
"4. c #23FF5E",
"5. c #49CD6C",
"6. c #48D36D",
"7. c #41FF74",
"8. c #147E87",
"9. c #8C3F82",
"0. c #963E8A",
"q. c #A33D96",
"w. c #BD57AF",
"e. c #FF1AE1",
"r. c #FF34E5",
"t. c #FF39E5",
"y. c #FF54E9",
"u. c #37858A",
"i. c #33929B",
"p. c #349DA5",
"a. c #30A4AF",
"s. c #4CB2BC",
"d. c #4CB9C2",
"f. c #23EDFF",
"g. c #41EFFF",
"h. c #EABDC2",
"j. c #F5BCC1",
"k. c #FABCC3",
"l. c #BFDAC6",
"z. c #BEDDDE",
"x. c #BDE5C8",
"c. c #BCEBC9",
"v. c #BBF5CA",
"b. c #BCFACD",
"n. c #BBECF1",
"m. c #BDF4F9",
"M. c #BEF9FE",
"N. c #BBF1F6",
"B. c #BDE1E1",
"V. c #DBC2D8",
"C. c #C2DBDE",
"Z. c #F4C0C5",
"A. c #E1C2DB",
"S. c #E5C0C4",
"D. c #C3E3CB",
"F. c #C0F3CE",
"G. c #C4F8D2",
"H. c #C2DDE0",
"J. c #E6C3E1",
"K. c #E9C3E4",
"L. c #EEC4E9",
"P. c #F3C4EC",
"I. c #FAC1F2",
"U. c #F7C0F0",
"Y. c #C3E4E6",
"T. c #C2EBEF",
"R. c #C3EEF2",
"E. c #C3F2F6",
"W. c #C3FAFF",
"Q. c #C4F5FA",
"!. c #ECFBFA",
/* pixels */
"                                                                                                                                ",
"                                                                                                                                ",
"                                                                                                                                ",
"                                                                                                                                ",
"                                                                                                                                ",
"                                                                                                                                ",
"                                                                                                                                ",
"                                                                                                                                ",
"                                                                                                                                ",
"                                                                                                                                ",
"                                                                                                                                ",
"                                                                                                                                ",
"                                                                                                                                ",
"                                                                                                                                ",
"                                                                                                                                ",
"                                                                                                                                ",
"                    X   X X X X X X   X                                                                                         ",
"                    X X X & * y * & & X                                                                                         ",
"                  X X * y t t t t t y * X X X                                                                                   ",
"                X X * a P $.$.%.%.U P a * X X                                                                                   ",
"                X & a P D.D.x.x.x.D.D.P y &                                                                                     ",
"              X & y u $.c.7.4.4.4.7.D.I t & X                                                                                   ",
"            X & y u d *.v.4.1.1.1.4.c.$.a * X X                         .   .   .         . . .           o                     ",
"          X X & a U *.<.G.7.4.4.4.7.F.I t * & X O   O O O O O O X   . . . . . . . o . .   . . o       o o o o o o o             ",
"          X & y P v.b.G.!.F.c.c.x.D.D.P i 2 < < < ; O ; < < < < + o @ @ # # # # # # @ @ @ @ : > , , , 0 h : , : $ o o           ",
"          X & t $.v.7.7.G.5.;.-.&.$.U p i i S A A 1 1 g g g g h 2 % # 3 4 4 4 4 4 4 3 3 3 q 0 l x x x x k x x l 0 > o o o       ",
"          X * u $.b.4.4.b.5.;.&.f d p i D R Q ~ W K F H R Q W ) K w e  .' ` ` ` .. .n m 6 c C Z O.9.9.9.9.9.O.Z N z , o o       ",
"          X * u %.b.4.3.b.G.b.x.$.p i S R z.m.E.N.8.T ! N.Q.m.C.) / S.Z.k.k.k.k.k.k.k.h.C  .A.I.U.U.I.I.I.U.I.I.V.B , :         ",
"          X y u %.b.4.2.3.4.7.F.$.u i S ~ Y.g.g.W.i.8.i.M.g.g.H._ ( Z.#.} | | | | | #.k...+.A.y.r.r.r.r.t.t.t.y.J.V z : o       ",
"        X X y u %.b.4.2.3.4.7.F.I u i F ! B.g.g.W.s.a.s.W.g.g.Y._ ( Z.#.} } { { } } #.k...+.K.y.r.r.e.e.e.r.t.y.K.V z : o       ",
"          X y u %.b.3.3.b.F.F.x.I p p S ~ z.T.E.!.Q.m.Q.!.R.T.C._ ( S.Z.Z.k.} } k.j.j.j...+.V.L.P.U.r.e.r.U.P.L.V.B , : o       ",
"          X * u %.b.3.3.b.6.;.&.f d p D T u.a.s.R.g.f.g.R.d.p.u.J v ' [ @.k.| | k.@.[ ..8 M O.0.w.P.t.e.r.L.w.0.V x , o         ",
"        X X * u %.b.4.4.G.6.;.-.*.=.U L T u.p.d.T.g.f.g.R.d.p.u.J v ` X.@.Z.| | k.@.[ ] 8 6 k N q.K.r.e.r.L.q.N x , :           ",
"          X * u %.v.4.3.b.b.v.v.v.F.c.:.>.B.R.E.!.E.R.E.!.E.R.H._ ( S.Z.Z.k.} | k.k.Z.h.n 5 c M 0.K.r.e.r.K.0.k z : o o         ",
"          X * u %.v.4.1.3.4.4.4.4.7.b.,.>.n.g.g.W.s.a.s.Q.g.g.H._ ( Z.#.| } { { | | #.j. .5 7 c O.J.r.e.r.K.9.c , :             ",
"        X X & t I b.7.4.4.4.4.4.4.7.G.,.>.B.g.g.W.i.8.i.Q.g.g.H._ ( Z.#.| | | | | | #.k.e 4 q l Z A.y.t.y.J.Z c : o             ",
"          X & y P c.F.v.v.v.v.v.v.F.c.Y :.z.n.N.n.8.T _ T.T.T.C.) / h.Z.j.j.j.j.j.j.j.h.b 3 q 0 C V.P.P.P.V.B h : o             ",
"            X * a P I $.%.%.%.%.$.I U D D R Q Q R H F H 8.T W E i w / e ' ` ` ` ' ' e e 3 # @ > l B Z Z Z B l > o o             ",
"          X X X & a t u p u u u u t r i 1 A A A g g g g g g g g % % # 3 4 4 4 4 4 4 3 3 # @ . $ > 0 l l l , > $                 ",
"                X & & * * * * * = = - O < < ; ; ; ; O ; ; < ; ; + % @ # # # # # # # @ @ . . . . o : : : : : o o o               ",
"                  X X X X X X X X X X X O O O O                   . . . . . . . . . . .     .   o o o o o o   o                 ",
"                        X           X                                       .   .   .                                           ",
"                                                                                                                                ",
"                                                                                                                                ",
"                                                                                                                                ",
"                                                                                                                                ",
"                                                                                                                                ",
"                                                                                                                                ",
"                                                                                                                                ",
"                                                                                                                                ",
"                                                                                                                                ",
"                                                                                                                                ",
"                                                                                                                                ",
"                                                                                                                                ",
"                                                                                                                                ",
"                                                                                                                                ",
"                                                                                                                                ",
"                                                                                                                                ",
"                                                                                                                                ",
"                                                                                                                                ",
"                                                                                                                                ",
"                                                                                                                                ",
"                                                                                                                                ",
"                                                                                                                                "
};
