/* XPM */
static char *b74a40dcc2d444c3a268e09c2a9063ca9OCyyxBzbtb6lJoX[] = {
/* columns rows colors chars-per-pixel */
"64 64 86 1 ",
"  c #3F3C1F",
". c gray14",
"X c #252524",
"o c #262624",
"O c #272624",
"+ c #282823",
"@ c #292923",
"# c #2A2923",
"$ c #2B2A23",
"% c #2C2B23",
"& c #2D2C23",
"* c #2E2D22",
"= c #302F22",
"- c #333221",
"; c #333122",
": c #383621",
"> c #393621",
", c #3C3920",
"< c #403D1F",
"1 c #43401F",
"2 c #45421E",
"3 c #4C471E",
"4 c #4D491D",
"5 c #4F4A1D",
"6 c #57511C",
"7 c #58531B",
"8 c #5C561B",
"9 c #5E571B",
"0 c #58521C",
"q c #605A1A",
"w c #635C1A",
"e c #696119",
"r c #736A17",
"t c #746B17",
"y c #766D16",
"u c #7A7016",
"i c #7C7216",
"p c #827715",
"a c #827814",
"s c #837914",
"d c #857A14",
"f c #877C14",
"g c #8D8113",
"h c #8E8312",
"j c #8E8213",
"k c #8F8412",
"l c #968A11",
"z c #A89A0E",
"x c #AD9E0E",
"c c #A09210",
"v c #A19310",
"b c #B0A10D",
"n c #B3A30D",
"m c #B5A50C",
"M c #B7A70C",
"N c #BBAB0B",
"B c #BFAE0B",
"V c #C2B10A",
"C c #C5B409",
"Z c #C9B709",
"A c #CBB908",
"S c #CCBA08",
"D c #CDBB08",
"F c #D0BD08",
"G c #D7C307",
"H c #D8C506",
"J c #DAC606",
"K c #DECA05",
"L c #DFCB05",
"P c #DCC806",
"I c #E4CF04",
"U c #E5D004",
"Y c #E6D104",
"T c #ECD603",
"R c #EDD703",
"E c #E8D204",
"W c #F0DA02",
"Q c #F2DC02",
"! c #F5DE02",
"~ c #F6DF02",
"^ c #F7E001",
"/ c #F9E201",
"( c #FCE500",
") c #FDE500",
"_ c #FEE600",
"` c #FFE700",
/* pixels */
"................................................................",
"................................................................",
"................................................................",
"................................................................",
"................................................................",
"................................................................",
"................................................................",
"................................................................",
"...........................4axSIW`!TGMk8@.......................",
"........................4cR`````````````^mw.....................",
"......................9S```````````````````Ly...................",
"....................<B```````````````````````H8.................",
"...................u^``````````````````````````c@...............",
".................+b`````````````````````````````F>..............",
"................=C```````````````````````````````U1.............",
"...............&S`````````````````````````````````E<............",
"..............oN```````````````````````````````````L-...........",
"..............g`````````````````````````````````````V...........",
".............0```````````````````````````````````````f..........",
"............+P```````````````````````````````````````/,.........",
"............f```````````````````````````````````````Uf&.........",
"...........%R`````````````````````````````````````Ht@...........",
"...........p````````````````````````````````````Cq..............",
"...........G``````````````````````````````````n5................",
"..........3````````````````````````````````^c,..................",
"..........g``````````````````````````````Rj-....................",
"..........C````````````````````````````Pi@......................",
"..........!``````````````````````````Deo........................",
".........,`````````````````````````N6...........................",
".........7``````````````````````/z2.............................",
".........e````````````````````Wl:...............................",
".........t``````````````````Ia&o................................",
".........t``````````````````Ua&.................................",
".........e````````````````````Ql:...............................",
".........6``````````````````````/z2.............................",
".........,`````````````````````````N6...........................",
"..........!``````````````````````````De.........................",
"..........C````````````````````````````Li@......................",
"..........j``````````````````````````````Th-....................",
"..........3````````````````````````````````^v ..................",
"...........G`````````````````````````````````/m5.o..............",
"...........a````````````````````````````````````C9..............",
"...........%R`````````````````````````````````````Jt@...........",
"............f```````````````````````````````````````Uf&.........",
"............@J```````````````````````````````````````^,.........",
".............6```````````````````````````````````````f..........",
"..............k`````````````````````````````````````V...........",
"...............N```````````````````````````````````L-...........",
"...............&S`````````````````````````````````E ............",
"................-C```````````````````````````````U1.............",
".................@b`````````````````````````````G:..............",
"...................u!``````````````````````````vo...............",
"....................<B```````````````````````J7.................",
"......................9C```````````````````Ly...................",
"........................4cR`````````````^mwo....................",
"...........................4axDUQ`^TGMk8@.......................",
"................................................................",
"................................................................",
"................................................................",
"................................................................",
"................................................................",
"................................................................",
"................................................................",
"................................................................"
};
