/* XPM */
static char *b55ddcd45499456f933441479a8ca781KTGr33H4nW4wHckZ[] = {
/* columns rows colors chars-per-pixel */
"64 64 4 1 ",
"  c #1F1F45",
". c #262655",
"X c #29295A",
"o c #2B2B5E",
/* pixels */
"oooooooooooooooooooooooooooooooooooooooooooooooooooooooooooooooo",
"oooooooooooooooooooooooooooooooooooooooooooooooooooooooooooooooo",
"oooooooooooooooooooooooooooooooooooooooooooooooooooooooooooooooo",
"oooooooooooooooooooooooooooooooooooooooooooooooooooooooooooooooo",
"oooooooooooooooooooooooooooooooooooooooooooooooooooooooooooooooo",
"oooooooooooooooooooooooooooooooooooooooooooooooooooooooooooooooo",
"oooooooooooooooooooooooooooooooooooooooooooooooooooooooooooooooo",
"oooooooooooooooooooooooooooooooooooooooooooooooooooooooooooooooo",
"oooooooooooooooooooooooooooooooooooooooooooooooooooooooooooooooo",
"oooooooooooooooooooooooooooooooooooooooooooooooooooooooooooooooo",
"ooooooooooX..........................................Xoooooooooo",
"oooooooooo.                                          .oooooooooo",
"oooooooooo.                                          .oooooooooo",
"oooooooooo.                                          .oooooooooo",
"oooooooooo.                                          .oooooooooo",
"oooooooooo.                                          .oooooooooo",
"oooooooooo.                                          .oooooooooo",
"oooooooooo.                                          .oooooooooo",
"oooooooooo.                                          .oooooooooo",
"oooooooooo.                                          .oooooooooo",
"oooooooooo.                                          .oooooooooo",
"oooooooooo.                                          .oooooooooo",
"oooooooooo.                                          .oooooooooo",
"oooooooooo.                                          .oooooooooo",
"oooooooooo.                                          .oooooooooo",
"oooooooooo.                                          .oooooooooo",
"oooooooooo.                                          .oooooooooo",
"oooooooooo.                                          .oooooooooo",
"oooooooooo.                                          .oooooooooo",
"oooooooooo.                                          .oooooooooo",
"oooooooooo.                                          .oooooooooo",
"oooooooooo.                                          .oooooooooo",
"oooooooooo.                                          .oooooooooo",
"oooooooooo.                                          .oooooooooo",
"oooooooooo.                                          .oooooooooo",
"oooooooooo.                                          .oooooooooo",
"oooooooooo.                                          .oooooooooo",
"oooooooooo.                                          .oooooooooo",
"oooooooooo.                                          .oooooooooo",
"oooooooooo.                                          .oooooooooo",
"oooooooooo.                                          .oooooooooo",
"oooooooooo.                                          .oooooooooo",
"oooooooooo.                                          .oooooooooo",
"oooooooooo.                                          .oooooooooo",
"oooooooooo.                                          .oooooooooo",
"oooooooooo.                                          .oooooooooo",
"oooooooooo.                                          .oooooooooo",
"oooooooooo.                                          .oooooooooo",
"oooooooooo.                                          .oooooooooo",
"oooooooooo.                                          .oooooooooo",
"oooooooooo.                                          .oooooooooo",
"oooooooooo.                                          .oooooooooo",
"oooooooooo.                                          .oooooooooo",
"ooooooooooX..........................................Xoooooooooo",
"oooooooooooooooooooooooooooooooooooooooooooooooooooooooooooooooo",
"oooooooooooooooooooooooooooooooooooooooooooooooooooooooooooooooo",
"oooooooooooooooooooooooooooooooooooooooooooooooooooooooooooooooo",
"oooooooooooooooooooooooooooooooooooooooooooooooooooooooooooooooo",
"oooooooooooooooooooooooooooooooooooooooooooooooooooooooooooooooo",
"oooooooooooooooooooooooooooooooooooooooooooooooooooooooooooooooo",
"oooooooooooooooooooooooooooooooooooooooooooooooooooooooooooooooo",
"oooooooooooooooooooooooooooooooooooooooooooooooooooooooooooooooo",
"oooooooooooooooooooooooooooooooooooooooooooooooooooooooooooooooo",
"oooooooooooooooooooooooooooooooooooooooooooooooooooooooooooooooo"
};
